# xmcd
#
# Track frame offsets:
#	150
#	13013
#	28894
#	44054
#	63753
#	76078
#	95594
#	114743
#	130773
#	143805
#	160948
#	176597
#	196095
#	211535
#	226618
#	246182
#	259367
#	275887
#	289300
#
# Disc length: 4099 seconds
#
# Revision: 0
# Processed by: cddbd v1.5.2PL0 Copyright (c) Steve Scherf et al.
# Submitted via: audiograbber 1.83.01
#
DISCID=10100113
DTITLE=Mavericks - The Mavericks [2]
DYEAR=1999
DGENRE=
TTITLE0=You'll Never Know
TTITLE1=The End Of The Line (Jim Bakker)
TTITLE2=Mr. Jones
TTITLE3=The Lonely Waltz
TTITLE4=Watch Over Me
TTITLE5=Another Lonely Life (Paul's Song)
TTITLE6=I Don't Care (If You Love Me Anymore)
TTITLE7=Foolish Heart
TTITLE8=One Step Away
TTITLE9=Here Comes The Rain
TTITLE10=Missing You
TTITLE11=All You Ever Do Is Bring Me Down (Featuring Flaco Jiminez)
TTITLE12=My Secret Flame
TTITLE13=The Writing On The Wall
TTITLE14=Loving You
TTITLE15=If You Only Knew
TTITLE16=I'm Not Gonna Cry For You
TTITLE17=Something Stupid (A Duet With Raul and Trisha Yearwood)
TTITLE18=Blue Moon
EXTD=
EXTT0=
EXTT1=
EXTT2=
EXTT3=
EXTT4=
EXTT5=
EXTT6=
EXTT7=
EXTT8=
EXTT9=
EXTT10=
EXTT11=
EXTT12=
EXTT13=
EXTT14=
EXTT15=
EXTT16=
EXTT17=
EXTT18=
PLAYORDER=
